#!OML:ASF H:\Terrain\Patient Classification 1\Terrain2\Thursday\justin.ASF
:FULLY-SPECIFIED
:DEGREES
2393
root 18.3497 23.6008 9.94827 537.94 -178.495 -188.486
lowerback 7.80611 1.58972 9.92874
upperback 4.27861 2.79382 4.97349
thorax 0.327371 1.50403 -0.578046
lowerneck -10.2883 -1.74664 -9.38392
upperneck 40.211 -1.59858 4.16376
head 16.2387 -1.4816 3.28576
rclavicle -2.28602e-014 4.77083e-015
rhumerus -28.9243 -9.10841 -78.8507
rradius 24.2083
rwrist -5.29232
rhand -20.5572 13.4783
rfingers 7.12502
rthumb 5.80191 -16.4222
lclavicle -2.28602e-014 4.77083e-015
lhumerus -38.6173 4.20427 83.8074
lradius 33.1113
lwrist 3.88891
lhand -20.1687 19.5863
lfingers 7.12502
lthumb 6.17698 49.4763
rfemur 1.16125 -5.62978 32.9674
rtibia 27.4417
rfoot -23.6863 2.36861
rtoes 19.6763
lfemur -35.0594 4.74769 -7.38935
ltibia 50.5502
lfoot -16.8775 -9.56488
ltoes -14.7004
2394
root 18.3494 23.5837 10.0035 538.007 -178.385 -189.025
lowerback 7.76044 1.55469 10.4413
upperback 4.29469 2.77263 5.11793
thorax 0.391013 1.50243 -0.702296
lowerneck -10.4628 -1.70112 -9.38161
upperneck 40.2205 -1.50708 4.15014
head 16.2774 -1.44531 3.29505
rclavicle 8.74653e-015 3.65764e-014
rhumerus -28.7828 -8.65475 -79.0286
rradius 24.3405
rwrist -5.3487
rhand -20.1752 13.0893
rfingers 7.12502
rthumb 6.17063 -16.8009
lclavicle 8.74653e-015 3.65764e-014
lhumerus -38.7354 4.56504 83.6742
lradius 32.8767
lwrist 3.83924
lhand -20.0462 19.782
lfingers 7.12502
lthumb 6.29526 49.6684
rfemur 1.44521 -5.50826 33.5813
rtibia 27.0847
rfoot -23.5544 2.34618
rtoes 19.5418
lfemur -35.3386 4.61323 -6.67224
ltibia 49.3227
lfoot -17.0515 -8.56119
ltoes -17.7346
2395
root 18.3472 23.5658 10.0624 537.987 -178.173 -189.453
lowerback 7.81932 1.58108 10.8468
upperback 4.29868 2.84181 5.1949
thorax 0.389359 1.54201 -0.847932
lowerneck -10.4948 -1.65035 -9.19624
upperneck 40.2154 -1.42338 4.0114
head 16.2697 -1.40064 3.21286
rclavicle -5.36719e-015 -1.98785e-014
rhumerus -28.7028 -8.31415 -79.2018
rradius 24.3025
rwrist -5.34426
rhand -19.9958 12.9934
rfingers 7.12502
rthumb 6.34383 -16.8916
lclavicle -5.36719e-015 -1.98785e-014
lhumerus -38.8715 4.60292 83.5935
lradius 32.5176
lwrist 3.83077
lhand -20.0418 19.5136
lfingers 7.12502
lthumb 6.29948 49.4
rfemur 1.84655 -5.27036 34.1024
rtibia 26.7472
rfoot -23.5077 2.11574
rtoes 18.3898
lfemur -35.5058 4.5503 -6.0345
ltibia 48.1213
lfoot -17.2475 -7.85112
ltoes -19.6146
2396
root 18.3537 23.561 10.1309 537.865 -178.003 -189.433
lowerback 7.86803 1.58863 10.8384
upperback 4.3313 2.85461 5.17193
thorax 0.398727 1.54963 -0.869014
lowerneck -10.408 -1.60212 -8.97722
upperneck 40.1431 -1.30772 3.72377
head 16.1938 -1.35588 3.06025
rclavicle 1.07344e-014 1.43125e-014
rhumerus -28.7752 -7.74057 -79.4665
rradius 24.5419
rwrist -5.56142
rhand -20.1835 12.9102
rfingers 7.12502
rthumb 6.16271 -16.9802
lclavicle 1.07344e-014 1.43125e-014
lhumerus -38.9197 4.6349 83.5701
lradius 32.0043
lwrist 3.89902
lhand -19.9484 19.639
lfingers 7.12502
lthumb 6.38963 49.5227
rfemur 2.40788 -5.342 33.9743
rtibia 26.4655
rfoot -23.6332 2.27523
rtoes 17.9596
lfemur -35.4906 4.36242 -5.8775
ltibia 46.88
lfoot -17.5571 -7.47018
ltoes -20.2358
2397
root 18.362 23.5556 10.1979 537.881 -177.862 -189.516
lowerback 7.85227 1.58432 10.8999
upperback 4.29094 2.8547 5.21527
thorax 0.366356 1.54748 -0.857764
lowerneck -10.2356 -1.55778 -9.00139
upperneck 40.0552 -1.21935 3.63676
head 16.097 -1.33265 3.03581
rclavicle -1.25234e-014 3.18055e-014
rhumerus -28.9566 -7.31179 -79.6095
rradius 24.9303
rwrist -5.60363
rhand -20.3595 13.0593
rfingers 7.12502
rthumb 5.9927 -16.836
lclavicle -1.25234e-014 3.18055e-014
lhumerus -39.0351 4.93158 83.5118
lradius 31.5214
lwrist 3.79163
lhand -20.1598 19.4412
lfingers 7.12502
lthumb 6.18556 49.3309
rfemur 2.74858 -5.37224 33.9893
rtibia 26.2612
rfoot -23.6757 2.35349
rtoes 17.7089
lfemur -35.6225 4.17438 -5.59629
ltibia 45.5865
lfoot -17.5121 -7.25498
ltoes -19.3614
